<?xml version="1.0" encoding="UTF-8"?> <svg xmlns="http://www.w3.org/2000/svg" id="Layer_1" data-name="Layer 1" viewBox="0 0 500 95.7" width="250" height="60"><title>dockstreet-logo-2020</title><path d="M.9,57.5a10.7,10.7,0,0,0,3.6-.8,5.3,5.3,0,0,0,2.1-1.2,3.7,3.7,0,0,0,.9-1.6,8.8,8.8,0,0,0,.2-1.6V20.6A19.7,19.7,0,0,0,7.5,18a4.1,4.1,0,0,0-.8-1.9,4.4,4.4,0,0,0-2.1-1.3,11,11,0,0,0-3.7-.7v-.9l3.6.3H8a61.9,61.9,0,0,0,8.9-.5,79.4,79.4,0,0,1,8.5-.4,29.9,29.9,0,0,1,10.4,1.7,24,24,0,0,1,8.5,4.9,22.1,22.1,0,0,1,5.8,7.7A23.7,23.7,0,0,1,52.2,37a22.1,22.1,0,0,1-2,9.7,18.7,18.7,0,0,1-5.5,6.6A23,23,0,0,1,36.8,57a34.6,34.6,0,0,1-9.2,1.2H5.5l-4.6.2Zm13-4.7a11,11,0,0,0,5,2.9,18.7,18.7,0,0,0,5.7.8c7,0,12.2-1.8,15.4-5.4s4.8-8.8,4.8-15.7a21.2,21.2,0,0,0-1.6-8.3,20.5,20.5,0,0,0-4.4-6.7A21.5,21.5,0,0,0,32,15.8a23.9,23.9,0,0,0-8.6-1.6,21.8,21.8,0,0,0-9.1,1.9c-.2,2.4-.3,4.8-.4,7.1V52.8Z" transform="translate(0 -12.1)" style="fill:#231f20"></path><path d="M58.5,35.8a24.8,24.8,0,0,1,2-10A22.7,22.7,0,0,1,66,18.4a23.6,23.6,0,0,1,8-4.6,29.4,29.4,0,0,1,19.7,0,21.8,21.8,0,0,1,8,4.6,22.7,22.7,0,0,1,5.5,7.4,24.8,24.8,0,0,1,2,10,24,24,0,0,1-2,9.9,22.7,22.7,0,0,1-5.5,7.4,22,22,0,0,1-8,4.7,31.1,31.1,0,0,1-19.7,0,23.8,23.8,0,0,1-8-4.7,22.7,22.7,0,0,1-5.5-7.4A24,24,0,0,1,58.5,35.8Zm7.3,0a26.7,26.7,0,0,0,1.2,8,18.8,18.8,0,0,0,3.6,6.7,16.4,16.4,0,0,0,5.7,4.7,15.5,15.5,0,0,0,7.6,1.7,16,16,0,0,0,7.6-1.7,18.4,18.4,0,0,0,5.7-4.7,20.3,20.3,0,0,0,3.5-6.7,26.7,26.7,0,0,0,1.2-8,26.3,26.3,0,0,0-1.2-8A21.9,21.9,0,0,0,97.2,21a18.1,18.1,0,0,0-5.7-4.6,16.1,16.1,0,0,0-7.6-1.8,15.5,15.5,0,0,0-7.6,1.8A16.1,16.1,0,0,0,70.6,21,20.2,20.2,0,0,0,67,27.8,26.3,26.3,0,0,0,65.8,35.8Z" transform="translate(0 -12.1)" style="fill:#231f20"></path><path d="M155.1,28.9a24.4,24.4,0,0,0-2.4-5.7,14.3,14.3,0,0,0-3.5-4.5,14.1,14.1,0,0,0-4.6-3,15.9,15.9,0,0,0-5.9-1.1,14.2,14.2,0,0,0-7.2,1.7,13.8,13.8,0,0,0-4.9,4.4,22.3,22.3,0,0,0-2.7,6.5A33.3,33.3,0,0,0,123,35a29,29,0,0,0,1.1,7.9,22.1,22.1,0,0,0,3.3,6.5,14.8,14.8,0,0,0,5.4,4.5,16.6,16.6,0,0,0,7.5,1.7,19,19,0,0,0,11-3.2,31.7,31.7,0,0,0,8.2-8.8l1.7,1.4a64.7,64.7,0,0,1-4.7,6.1,23.4,23.4,0,0,1-5,4.5,22.2,22.2,0,0,1-6,2.9,26.8,26.8,0,0,1-7.2.9,22.9,22.9,0,0,1-8.7-1.7,21.4,21.4,0,0,1-7.2-4.9,22.7,22.7,0,0,1-4.9-7.5,24.4,24.4,0,0,1-1.9-9.5,24.9,24.9,0,0,1,1.9-9.6,22.8,22.8,0,0,1,12.1-12.3,21.2,21.2,0,0,1,8.7-1.8,35.7,35.7,0,0,1,4.7.4l4.2.6,3.9.7a23.3,23.3,0,0,0,3.7.4c0,1,.1,2.1.1,3.4s.2,2.6.3,3.9.3,2.7.4,4,.3,2.4.5,3.4Z" transform="translate(0 -12.1)" style="fill:#231f20"></path><path d="M176.2,47.2c0,1.9.1,3.5.2,4.8a6.3,6.3,0,0,0,.9,3,3.6,3.6,0,0,0,2.1,1.7,12.8,12.8,0,0,0,4,.8v.8l-5.2-.2H168l-5,.2v-.8a11.5,11.5,0,0,0,3.9-.8A3.9,3.9,0,0,0,169,55a7.6,7.6,0,0,0,.9-3c.1-1.3.1-2.9.1-4.8V24.3c0-1.9,0-3.5-.1-4.7a8.1,8.1,0,0,0-.9-3.1,4.8,4.8,0,0,0-2.2-1.7,15.2,15.2,0,0,0-3.9-.7v-.9l5.6.3h10.1l4.4-.3v.9a14.3,14.3,0,0,0-3.7.7,5.1,5.1,0,0,0-2.1,1.7,8.2,8.2,0,0,0-.8,3.1c-.1,1.2-.2,2.8-.2,4.7V35.9l10.4-8.5,2.7-2.4a17.9,17.9,0,0,0,2.3-2.6,14.3,14.3,0,0,0,1.6-2.4,4.9,4.9,0,0,0,.6-2.2,3.1,3.1,0,0,0-.4-1.7,3.4,3.4,0,0,0-1.2-1.2,4.4,4.4,0,0,0-1.6-.6,5.5,5.5,0,0,0-1.8-.2v-.9l5.1.3h10.6l5.4-.3v.9a11.4,11.4,0,0,0-3.3.7,11.2,11.2,0,0,0-3.2,1.4,25.5,25.5,0,0,0-3.4,2.3l-4.2,3.4-8.5,7.3,13.8,20.3a28.1,28.1,0,0,0,4.9,5.4,11.1,11.1,0,0,0,6.3,2.6v.8l-5.9-.2H195.2l-5.3.2v-.8a11.3,11.3,0,0,0,4.3-1,3.3,3.3,0,0,0,1.8-3.2,3.7,3.7,0,0,0-.8-2l-2.1-3.1L182.8,33l-6.6,5.1Z" transform="translate(0 -12.1)" style="fill:#231f20"></path><path d="M262.1,26.3a26.4,26.4,0,0,0-2.3-4.4,17,17,0,0,0-3.3-3.8,16.2,16.2,0,0,0-4.1-2.7,11.4,11.4,0,0,0-4.9-1.1,12.4,12.4,0,0,0-6.4,1.5c-1.7.9-2.5,2.7-2.5,5.1a6.8,6.8,0,0,0,1.1,3.8,13.8,13.8,0,0,0,3,2.9,34.5,34.5,0,0,0,4.3,2.2l4.9,2.1,4.9,2.3a18.4,18.4,0,0,1,4.3,3,11.6,11.6,0,0,1,4.1,9.3,12.8,12.8,0,0,1-1.2,5.8,10.8,10.8,0,0,1-3.3,4,13.2,13.2,0,0,1-4.9,2.4,22.2,22.2,0,0,1-5.9.7l-3.6-.3-3.5-.7-3.1-.7-2.3-.3a3.2,3.2,0,0,0-1.4.2l-1.4.5c-.5-2.6-.9-5.1-1.5-7.6s-1.1-5-1.7-7.6l.9-.5a38.9,38.9,0,0,0,3,5,29.5,29.5,0,0,0,3.9,4.7,20.1,20.1,0,0,0,4.8,3.6,11.7,11.7,0,0,0,5.8,1.5,15.8,15.8,0,0,0,3.8-.5,10.4,10.4,0,0,0,3.2-1.4,6.9,6.9,0,0,0,2.3-2.5,8.6,8.6,0,0,0,.8-3.8,8,8,0,0,0-2-5.4,21,21,0,0,0-4.9-3.7,54,54,0,0,0-6.4-3,38,38,0,0,1-6.4-3.1,20,20,0,0,1-5-4,8.9,8.9,0,0,1-1.9-5.9,10.6,10.6,0,0,1,1-4.8,11.7,11.7,0,0,1,2.8-3.8,11.3,11.3,0,0,1,4-2.3,13.3,13.3,0,0,1,4.9-.9,28.9,28.9,0,0,1,4.5.4l4,.7,3.9.8a17.8,17.8,0,0,0,4.1.4c0,2.1,0,4.1.1,6s.2,3.9.4,5.9Z" transform="translate(0 -12.1)" style="fill:#231f20"></path><path d="M281.1,57.5a11.5,11.5,0,0,0,3.9-.8,3.9,3.9,0,0,0,2.1-1.7,7.7,7.7,0,0,0,.8-3,34,34,0,0,0,.2-4.8V15.4a49.7,49.7,0,0,0-6,.3,10.9,10.9,0,0,0-4.3,1.4,10.8,10.8,0,0,0-3.1,3.5,36.5,36.5,0,0,0-2.6,6.3l-.9-.2,1-13.5,5.6.3H305l5.4-.3,1,13.5-.9.2a36.5,36.5,0,0,0-2.6-6.3,10.8,10.8,0,0,0-3.1-3.5,11.5,11.5,0,0,0-4.3-1.4,54.6,54.6,0,0,0-6.2-.3V47.2a34,34,0,0,0,.2,4.8,7.7,7.7,0,0,0,.8,3,3.8,3.8,0,0,0,2.2,1.7,12.8,12.8,0,0,0,4,.8v.8l-5.2-.2H286.1l-5,.2Z" transform="translate(0 -12.1)" style="fill:#231f20"></path><path d="M364,58H351.7a91.5,91.5,0,0,1-8-9.7,80.1,80.1,0,0,1-6.5-10.5h-1.8l-2.2-.3L331,37l-1.7-.5V47.2a34,34,0,0,0,.2,4.8,7.7,7.7,0,0,0,.8,3,3.8,3.8,0,0,0,2.2,1.7,12.8,12.8,0,0,0,4,.8v.8l-5.2-.2H321.1l-5,.2v-.8a11.5,11.5,0,0,0,3.9-.8,3.9,3.9,0,0,0,2.1-1.7,7.7,7.7,0,0,0,.8-3,34,34,0,0,0,.2-4.8V24.3a31.8,31.8,0,0,0-.2-4.7,8.2,8.2,0,0,0-.8-3.1,5.1,5.1,0,0,0-2.1-1.7,15.2,15.2,0,0,0-3.9-.7v-.9l4.4.3h6.8l3-.2,3.3-.3h2.9a26.2,26.2,0,0,1,6.1.8,17,17,0,0,1,5.5,2.4,13.7,13.7,0,0,1,4.1,4.2,11.6,11.6,0,0,1,1.5,6,10.8,10.8,0,0,1-.8,4.2,13,13,0,0,1-2.3,3.3,13.3,13.3,0,0,1-3.4,2.2,19.6,19.6,0,0,1-4.1,1.3l2.3,3.7a35.2,35.2,0,0,0,2.9,4.2l3.4,4.2a27.9,27.9,0,0,0,3.9,3.8,27.1,27.1,0,0,0,4.1,2.8,11.3,11.3,0,0,0,4.3,1.3ZM329.3,34.2a17.3,17.3,0,0,0,6.4,1.2c3.5,0,6.3-.9,8.2-2.5s3-4.3,3-8a9.1,9.1,0,0,0-.9-4.1,8.7,8.7,0,0,0-2.3-3.1,11.3,11.3,0,0,0-3.5-2.1,11.4,11.4,0,0,0-4.1-.7h-3.3a16.5,16.5,0,0,0-3.2.6c-.1,2.2-.2,4.5-.2,6.7s-.1,4.6-.1,7.2Z" transform="translate(0 -12.1)" style="fill:#231f20"></path><path d="M378.7,55.4l1.5.2,1.9.3,2.1.3h2.1a39.3,39.3,0,0,0,7.3-.7,22.5,22.5,0,0,0,6-2.2,23.1,23.1,0,0,0,5.1-3.9,47.8,47.8,0,0,0,4.9-5.6l.7.6-6.2,13.8-2.4-.2H369.6l-4,.2v-.8a11.4,11.4,0,0,0,3.8-.8,3.9,3.9,0,0,0,2.1-1.7,7.7,7.7,0,0,0,.8-3c.1-1.3.2-2.9.2-4.8V24.3c0-1.9-.1-3.5-.2-4.7a8.2,8.2,0,0,0-.8-3.1,5.1,5.1,0,0,0-2.1-1.7,17.1,17.1,0,0,0-4-.7v-.9l4.5.2h24.2l9.8-.3a8.6,8.6,0,0,0-.1,1.6,6.6,6.6,0,0,0-.1,1.4v2.7c0,1,.1,2.1.2,3.1a32.8,32.8,0,0,1,.2,3.4l-.8.2a17.3,17.3,0,0,0-2.4-5.3,11.8,11.8,0,0,0-3.4-3.3,13.1,13.1,0,0,0-4.3-1.6,38.9,38.9,0,0,0-4.9-.4c-3.2,0-6.4.2-9.6.4V32.6h5.2c3.2,0,5.7-.6,7.5-1.9s3-3.5,3.4-6.8h.9c0,1.6-.1,3.2-.1,4.9s-.1,3.3-.1,4.9,0,3.2.1,4.9.1,3.3.1,4.9h-.9a20,20,0,0,0-1.5-4.7,7.8,7.8,0,0,0-2.2-2.8,9.9,9.9,0,0,0-3.3-1.3,31.8,31.8,0,0,0-4.7-.3h-4.4Z" transform="translate(0 -12.1)" style="fill:#231f20"></path><path d="M425.6,55.4l1.5.2,1.9.3,2.1.3h2.1a41.4,41.4,0,0,0,7.4-.7,21.6,21.6,0,0,0,11-6.1,47.8,47.8,0,0,0,4.9-5.6l.7.6L451,58.3l-2.4-.2H416.5l-4,.2v-.8a11.4,11.4,0,0,0,3.8-.8,3.6,3.6,0,0,0,2.1-1.7,7.7,7.7,0,0,0,.8-3,34,34,0,0,0,.2-4.8V24.3a31.8,31.8,0,0,0-.2-4.7,8.2,8.2,0,0,0-.8-3.1,5.1,5.1,0,0,0-2.1-1.7,17.1,17.1,0,0,0-3.9-.7v-.9l4.4.2h24.3l9.7-.3a8.6,8.6,0,0,0-.1,1.6v4.1c0,1,0,2.1.1,3.1s.2,2.1.3,3.4l-.9.2a17.3,17.3,0,0,0-2.4-5.3,11.8,11.8,0,0,0-3.4-3.3,12.3,12.3,0,0,0-4.3-1.6,37.4,37.4,0,0,0-4.9-.4c-3.2,0-6.4.2-9.6.4V32.6h5.3a13,13,0,0,0,7.5-1.9c1.8-1.2,2.9-3.5,3.4-6.8h.8c0,1.6-.1,3.2-.1,4.9s-.1,3.3-.1,4.9.1,3.2.1,4.9.1,3.3.1,4.9h-.8a25.5,25.5,0,0,0-1.6-4.7,7.8,7.8,0,0,0-2.2-2.8,9.9,9.9,0,0,0-3.3-1.3,31.8,31.8,0,0,0-4.7-.3h-4.4Z" transform="translate(0 -12.1)" style="fill:#231f20"></path><path d="M468.8,57.5a11.4,11.4,0,0,0,3.8-.8,3.3,3.3,0,0,0,2.1-1.7,6.3,6.3,0,0,0,.9-3c.1-1.3.2-2.9.2-4.8V15.4a52.8,52.8,0,0,0-6.1.3,11,11,0,0,0-4.2,1.4,9.8,9.8,0,0,0-3.1,3.5,30,30,0,0,0-2.6,6.3l-.9-.2.9-13.5,5.7.3h27.2l5.4-.3,1,13.5-.9.2a46.7,46.7,0,0,0-2.6-6.3,10,10,0,0,0-3.2-3.5,11,11,0,0,0-4.2-1.4,54.6,54.6,0,0,0-6.2-.3V47.2c0,1.9,0,3.5.1,4.8a6.3,6.3,0,0,0,.9,3,3.8,3.8,0,0,0,2.2,1.7,12.1,12.1,0,0,0,3.9.8v.8l-5.2-.2H473.7l-4.9.2Z" transform="translate(0 -12.1)" style="fill:#231f20"></path><path d="M7.7,97l-2.3,6.3a.8.8,0,0,1-.2.5c0,.2-.1.3-.1.5a2.1,2.1,0,0,0,.4,1.1l.9.7,1.1.5.9.3v.4H0v-.4a7.5,7.5,0,0,0,1.8-.8A3.4,3.4,0,0,0,3,104.9a8.3,8.3,0,0,0,.9-1.6c.2-.5.5-1.1.7-1.7l6.1-15c.1-.1.1-.3.2-.4a.8.8,0,0,0,.1-.4,4.3,4.3,0,0,1-.1-.5l-.3-.7,1.5-.4,1.5-.6,7.3,20.1a6.9,6.9,0,0,0,1.4,2.2,5.7,5.7,0,0,0,2.6,1v.4H14.2v-.4a8.2,8.2,0,0,0,2.5-.8,1.7,1.7,0,0,0,1-1.6,1.1,1.1,0,0,0-.1-.5l-.2-.5L15.1,97Zm3.8-10L8.1,95.9h6.6Z" transform="translate(0 -12.1)" style="fill:#231f20"></path><path d="M49.2,90.8A11.9,11.9,0,0,0,48,88.6a8.2,8.2,0,0,0-1.7-2,7.7,7.7,0,0,0-2.1-1.4,7,7,0,0,0-2.5-.5,6.2,6.2,0,0,0-3.3.7,2.8,2.8,0,0,0-1.3,2.7,3.1,3.1,0,0,0,.6,1.9,5.4,5.4,0,0,0,1.5,1.5l2.2,1.1,2.5,1.1,2.6,1.2a10.7,10.7,0,0,1,2.2,1.5,8,8,0,0,1,1.5,2.1,5.7,5.7,0,0,1,.6,2.7,6.7,6.7,0,0,1-.6,3,8.7,8.7,0,0,1-1.7,2.1,11.5,11.5,0,0,1-2.5,1.2,15.5,15.5,0,0,1-3.1.4l-1.8-.2-1.9-.4-1.6-.3a2.3,2.3,0,0,0-1.1-.2h-.7l-.8.3a39.1,39.1,0,0,0-.7-3.9l-.9-3.9.5-.3a24.3,24.3,0,0,0,1.5,2.6,15.9,15.9,0,0,0,2,2.4,11,11,0,0,0,2.5,1.9,7.3,7.3,0,0,0,2.9.7l2-.2a5.3,5.3,0,0,0,1.7-.8,3.2,3.2,0,0,0,1.1-1.2,4.2,4.2,0,0,0,.4-2,4,4,0,0,0-1-2.8,12.6,12.6,0,0,0-2.5-1.9l-3.3-1.5a25.3,25.3,0,0,1-3.3-1.6,10.3,10.3,0,0,1-2.5-2.1,4.4,4.4,0,0,1-1-3,5.3,5.3,0,0,1,.5-2.5,5.2,5.2,0,0,1,1.4-1.9A7.2,7.2,0,0,1,38.4,84a6.9,6.9,0,0,1,2.5-.4h2.3l2.1.4,2,.4a6.8,6.8,0,0,0,2.1.2v3.1c.1,1,.1,2,.3,3Z" transform="translate(0 -12.1)" style="fill:#231f20"></path><path d="M77.1,90.8a11.9,11.9,0,0,0-1.2-2.2,8.2,8.2,0,0,0-1.7-2,7.7,7.7,0,0,0-2.1-1.4,7,7,0,0,0-2.5-.5,6.7,6.7,0,0,0-3.3.7A2.8,2.8,0,0,0,65,88.1a3.1,3.1,0,0,0,.6,1.9,5.4,5.4,0,0,0,1.5,1.5l2.2,1.1,2.6,1.1,2.5,1.2a10.7,10.7,0,0,1,2.2,1.5,8,8,0,0,1,1.5,2.1,5.7,5.7,0,0,1,.6,2.7,6.7,6.7,0,0,1-.6,3,8.7,8.7,0,0,1-1.7,2.1,11.5,11.5,0,0,1-2.5,1.2,15.5,15.5,0,0,1-3.1.4l-1.8-.2-1.8-.4-1.6-.3a3,3,0,0,0-1.2-.2h-.7l-.8.3a39.1,39.1,0,0,0-.7-3.9l-.9-3.9.5-.3a24.3,24.3,0,0,0,1.5,2.6,15.9,15.9,0,0,0,2,2.4,11,11,0,0,0,2.5,1.9,7.3,7.3,0,0,0,2.9.7l2-.2a4.5,4.5,0,0,0,1.7-.8,2.5,2.5,0,0,0,1.1-1.2,4.2,4.2,0,0,0,.5-2,4.1,4.1,0,0,0-1.1-2.8,10.2,10.2,0,0,0-2.5-1.9l-3.3-1.5a25.3,25.3,0,0,1-3.3-1.6,10.3,10.3,0,0,1-2.5-2.1,4.4,4.4,0,0,1-1-3,5.3,5.3,0,0,1,.5-2.5,5.2,5.2,0,0,1,1.4-1.9A7.2,7.2,0,0,1,66.3,84a6.9,6.9,0,0,1,2.5-.4h2.4l2,.4,2,.4a6.8,6.8,0,0,0,2.1.2v3.1l.3,3Z" transform="translate(0 -12.1)" style="fill:#231f20"></path><path d="M95.8,105.8h.8l1,.2h2.1a21.7,21.7,0,0,0,3.8-.3,16.3,16.3,0,0,0,3.1-1.1,16.4,16.4,0,0,0,2.6-2c.8-.8,1.6-1.8,2.5-2.9l.4.3-3.2,7.1H89.1v-.4a8.8,8.8,0,0,0,2-.4,2.2,2.2,0,0,0,1-.9,5,5,0,0,0,.5-1.6V87.4a5,5,0,0,0-.5-1.6,2,2,0,0,0-1.1-.9,7.7,7.7,0,0,0-2-.4v-.4h19.8a2.2,2.2,0,0,0-.1.8V87a8.1,8.1,0,0,0,.1,1.6c0,.5.1,1.1.1,1.8h-.5a10.3,10.3,0,0,0-1.2-2.8,6.4,6.4,0,0,0-1.7-1.6,5.8,5.8,0,0,0-2.2-.8,10.9,10.9,0,0,0-2.6-.3l-4.9.3v8.8h2.7a6.7,6.7,0,0,0,3.9-1,4.7,4.7,0,0,0,1.7-3.5h.4V99.6h-.4a9.6,9.6,0,0,0-.8-2.4,3.5,3.5,0,0,0-1.1-1.5,4.3,4.3,0,0,0-1.7-.6l-2.4-.2H95.8Z" transform="translate(0 -12.1)" style="fill:#231f20"></path><path d="M125.1,106.9a6.9,6.9,0,0,0,1.9-.4,2,2,0,0,0,1.1-.9,3.4,3.4,0,0,0,.5-1.6c0-.6.1-1.4.1-2.4V85.3h-3.2a4.5,4.5,0,0,0-3.7,2.5,18.1,18.1,0,0,0-1.4,3.3L120,91l.4-6.9h19.7l.5,6.9-.4.2a18.1,18.1,0,0,0-1.4-3.3,5.7,5.7,0,0,0-1.6-1.8,4.8,4.8,0,0,0-2.2-.7h-3.2v16.3a16.3,16.3,0,0,0,.1,2.4,3.4,3.4,0,0,0,.5,1.6,2,2,0,0,0,1.1.9,7.7,7.7,0,0,0,2,.4v.4H125.1Z" transform="translate(0 -12.1)" style="fill:#231f20"></path><path d="M186,84.1h9.5v.4a6.7,6.7,0,0,0-2.4.9,2.6,2.6,0,0,0-.9,2.3,18.7,18.7,0,0,0,.2,2.9c.2,1.3.4,2.7.7,4.3s.5,3.1.8,4.7.6,2.9.9,4l.3,1.3.6.9a4.1,4.1,0,0,0,1.1.7l1.9.4v.4H187.9v-.4l1.4-.3,1.1-.5a2,2,0,0,0,.8-.8,3.3,3.3,0,0,0,.3-1.5v-1.1a10,10,0,0,0-.2-1.6l-2.5-14.2h0l-2.1,5c-.7,1.6-1.4,3.3-2.2,5s-1.3,3.3-2,5a53.4,53.4,0,0,0-1.8,5.2h-.1c-1.1-3.6-2.4-7.1-3.8-10.5s-3-6.7-4.6-10.1h0c-.2,1.3-.4,2.7-.6,4.3s-.4,3.1-.5,4.6-.3,2.9-.4,4.1-.1,2.1-.1,2.8a12.7,12.7,0,0,0,.1,2,3.5,3.5,0,0,0,.6,1.4,5.7,5.7,0,0,0,1.3.8,8.7,8.7,0,0,0,2.1.4v.4H164.6v-.4l1.4-.3,1.3-.6a2.2,2.2,0,0,0,1-.9,1.7,1.7,0,0,0,.5-1.2,20.2,20.2,0,0,0,.4-2.6,25.1,25.1,0,0,0,.4-2.7l1.7-12.5a7.7,7.7,0,0,0-1.8-1l-2-.6v-.4h10.3v.4l-1.2.6a1.5,1.5,0,0,0-.6,1.3,5,5,0,0,0,.2,1.2l.5,1.1,4.9,12.2c1.2-2.5,2.4-5,3.4-7.5s2.1-5,3-7.7l-.9-.7-1.1-.5Z" transform="translate(0 -12.1)" style="fill:#231f20"></path><path d="M213.2,97l-2.4,6.3a.8.8,0,0,1-.2.5v.5a2,2,0,0,0,.3,1.1l.9.7,1.1.5,1,.3v.4h-8.5v-.4a6.1,6.1,0,0,0,1.8-.8,3.4,3.4,0,0,0,1.2-1.2,5.1,5.1,0,0,0,.9-1.6,8.7,8.7,0,0,0,.7-1.7l6.1-15,.2-.4a.8.8,0,0,0,.1-.4,1.1,1.1,0,0,0-.1-.5l-.3-.7,1.6-.4,1.4-.6,7.4,20.1a5.4,5.4,0,0,0,1.3,2.2,5.7,5.7,0,0,0,2.6,1v.4H219.6v-.4a7.3,7.3,0,0,0,2.5-.8,1.7,1.7,0,0,0,1-1.6,1.1,1.1,0,0,0-.1-.5c-.1-.2-.1-.4-.2-.5L220.5,97ZM217,87l-3.5,8.9h6.6Z" transform="translate(0 -12.1)" style="fill:#231f20"></path><path d="M237.9,84.1h7.9l1.5,1.9,2.5,3c.9,1.1,1.8,2.3,2.9,3.5l2.9,3.6,2.7,3.4a23.7,23.7,0,0,1,1.9,2.5h.1V93.7c0-1.5,0-2.8-.1-3.9a7.2,7.2,0,0,0-.7-2.8,3.3,3.3,0,0,0-1.3-1.7,4.8,4.8,0,0,0-2.3-.8v-.4h9.6v.4a5.3,5.3,0,0,0-3.1,1.3,5.2,5.2,0,0,0-.8,3.1v18.7h-1.3c-1.3-2-2.7-4-4.1-5.9s-2.9-3.7-4.3-5.4l-4.1-4.8-3.6-3.9v1.8a10.9,10.9,0,0,0-.1,1.8v6.1c0,2.1.1,3.8.2,5a5.5,5.5,0,0,0,.6,2.8,2.6,2.6,0,0,0,1.4,1.3l2.6.5v.4h-11v-.4l2.1-.4a3.8,3.8,0,0,0,1.4-.5,2,2,0,0,0,.9-1.1,6.9,6.9,0,0,0,.4-1.9l.4-16.1a12.8,12.8,0,0,0-2.5-1.5l-2.7-.9Z" transform="translate(0 -12.1)" style="fill:#231f20"></path><path d="M280.7,97l-2.3,6.3c-.1.2-.1.4-.2.5a.9.9,0,0,0-.1.5,1.5,1.5,0,0,0,.4,1.1,2.2,2.2,0,0,0,.9.7l1.1.5.9.3v.4H273v-.4a7.5,7.5,0,0,0,1.8-.8,3.4,3.4,0,0,0,1.2-1.2l.9-1.6c.2-.5.4-1.1.7-1.7l6.1-15,.2-.4v-.4a1.1,1.1,0,0,0-.1-.5l-.3-.7,1.6-.4,1.5-.6,7.3,20.1a5.5,5.5,0,0,0,1.4,2.2,5.2,5.2,0,0,0,2.6,1v.4H287.2v-.4a8.2,8.2,0,0,0,2.5-.8,1.9,1.9,0,0,0,1-1.6l-.2-.5a4.3,4.3,0,0,0-.1-.5L288.1,97Zm3.8-10-3.4,8.9h6.6Z" transform="translate(0 -12.1)" style="fill:#231f20"></path><path d="M327.5,91.7a21.5,21.5,0,0,0-1.4-2.6,13.7,13.7,0,0,0-1.7-2.3,8.7,8.7,0,0,0-2.3-1.6,7.3,7.3,0,0,0-3-.6,6.1,6.1,0,0,0-3.6,1,11,11,0,0,0-2.7,2.6,12.7,12.7,0,0,0-1.7,3.5,18.3,18.3,0,0,0-.5,4,18.6,18.6,0,0,0,.5,4.2,10.8,10.8,0,0,0,1.7,3.4,10.1,10.1,0,0,0,2.7,2.4,6.9,6.9,0,0,0,3.6.9,12.4,12.4,0,0,0,3.3-.4,6.7,6.7,0,0,0,3-1.3v-4.5c0-1.6-1.2-2.5-3.6-2.5v-.5H332v.5h-1.4l-1.1.5a3.5,3.5,0,0,0-.7.9,4.4,4.4,0,0,0-.2,1.3v5l-4.8,1.5a19,19,0,0,1-4.6.7,14.4,14.4,0,0,1-4.6-.8,13,13,0,0,1-4.1-2.4,11.9,11.9,0,0,1-3.9-9,11.3,11.3,0,0,1,1.1-4.8,13.9,13.9,0,0,1,2.8-3.9,15.5,15.5,0,0,1,4.1-2.5,12.2,12.2,0,0,1,4.6-.9h2.6l2.1.3,1.7.4,1.5.4a8.6,8.6,0,0,0,.1,1.5,12.3,12.3,0,0,0,.2,1.9l.3,2a10.4,10.4,0,0,1,.2,1.5Z" transform="translate(0 -12.1)" style="fill:#231f20"></path><path d="M347.4,105.8h.8l.9.2h2.2a21.7,21.7,0,0,0,3.8-.3,13.3,13.3,0,0,0,3-1.1,17.1,17.1,0,0,0,2.7-2c.8-.8,1.6-1.8,2.5-2.9l.3.3-3.2,7.1H340.7v-.4a6.9,6.9,0,0,0,1.9-.4,2.4,2.4,0,0,0,1.1-.9,3.4,3.4,0,0,0,.4-1.6,16.3,16.3,0,0,0,.1-2.4V89.8a16.3,16.3,0,0,0-.1-2.4,3.4,3.4,0,0,0-.4-1.6,2.4,2.4,0,0,0-1.1-.9,8.8,8.8,0,0,0-2-.4v-.4h19.7v4.5c.1.5.1,1.1.2,1.8H360a10.3,10.3,0,0,0-1.2-2.8,5.5,5.5,0,0,0-1.8-1.6,5.3,5.3,0,0,0-2.2-.8,10.1,10.1,0,0,0-2.5-.3,40.3,40.3,0,0,0-4.9.3v8.8h2.7a6.1,6.1,0,0,0,3.8-1,4.4,4.4,0,0,0,1.8-3.5h.4V92a21.8,21.8,0,0,0-.1,2.5,20.1,20.1,0,0,0,.1,2.5v2.6h-.4a9.6,9.6,0,0,0-.8-2.4,4.5,4.5,0,0,0-1.1-1.5,4.9,4.9,0,0,0-1.7-.6l-2.5-.2h-2.2Z" transform="translate(0 -12.1)" style="fill:#231f20"></path><path d="M391.9,84.1h9.5v.4a6.7,6.7,0,0,0-2.4.9,2.4,2.4,0,0,0-1,2.3,23.2,23.2,0,0,0,.3,2.9c.2,1.3.4,2.7.7,4.3s.5,3.1.8,4.7l.8,4a9.3,9.3,0,0,1,.4,1.3l.6.9a3,3,0,0,0,1.1.7l1.9.4v.4H393.7v-.4l1.4-.3a3.3,3.3,0,0,0,1.2-.5,2,2,0,0,0,.8-.8,3.3,3.3,0,0,0,.3-1.5v-1.1a11,11,0,0,0-.3-1.6l-2.4-14.2h0l-2.1,5c-.8,1.6-1.5,3.3-2.2,5s-1.4,3.3-2,5a53.4,53.4,0,0,0-1.8,5.2h-.1c-1.1-3.6-2.4-7.1-3.8-10.5s-3-6.7-4.6-10.1H378c-.2,1.3-.3,2.7-.5,4.3s-.4,3.1-.5,4.6-.3,2.9-.4,4.1-.1,2.1-.1,2.8a12.7,12.7,0,0,0,.1,2,3.5,3.5,0,0,0,.6,1.4,3.2,3.2,0,0,0,1.3.8,8.8,8.8,0,0,0,2,.4v.4H370.4v-.4l1.5-.3,1.3-.6a2.8,2.8,0,0,0,1-.9,1.7,1.7,0,0,0,.5-1.2,20.2,20.2,0,0,0,.4-2.6,25.1,25.1,0,0,1,.4-2.7l1.7-12.5a7.7,7.7,0,0,0-1.8-1l-2-.6v-.4h10.3v.4l-1.2.6a1.5,1.5,0,0,0-.6,1.3,5,5,0,0,0,.2,1.2c.1.4.3.7.4,1.1l5,12.2c1.2-2.5,2.3-5,3.4-7.5s2.1-5,3-7.7L393,85l-1.1-.5Z" transform="translate(0 -12.1)" style="fill:#231f20"></path><path d="M419.5,105.8h.7l1,.2h2.2a22.5,22.5,0,0,0,3.8-.3,13.3,13.3,0,0,0,3-1.1,16.4,16.4,0,0,0,2.6-2,18,18,0,0,0,2.5-2.9l.4.3-3.2,7.1H412.7v-.4a7.7,7.7,0,0,0,2-.4,2.4,2.4,0,0,0,1.1-.9,3.4,3.4,0,0,0,.4-1.6,16.3,16.3,0,0,0,.1-2.4V89.8a16.3,16.3,0,0,0-.1-2.4,3.4,3.4,0,0,0-.4-1.6,2.4,2.4,0,0,0-1.1-.9,8.8,8.8,0,0,0-2-.4v-.4h19.7v.8c0,.3-.1.5-.1.7V87c0,.6.1,1.1.1,1.6s.1,1.1.2,1.8h-.5a10.3,10.3,0,0,0-1.2-2.8,5.5,5.5,0,0,0-1.8-1.6,5.3,5.3,0,0,0-2.2-.8,10.1,10.1,0,0,0-2.5-.3,40.3,40.3,0,0,0-4.9.3v8.8h2.7a6.1,6.1,0,0,0,3.8-1,4.4,4.4,0,0,0,1.8-3.5h.4V92a21.8,21.8,0,0,0-.1,2.5,20.1,20.1,0,0,0,.1,2.5v2.6h-.4a9.6,9.6,0,0,0-.8-2.4,4.5,4.5,0,0,0-1.1-1.5,4.8,4.8,0,0,0-1.8-.6l-2.4-.2h-2.2Z" transform="translate(0 -12.1)" style="fill:#231f20"></path><path d="M443.1,84.1H451a15.9,15.9,0,0,0,1.6,1.9l2.4,3c.9,1.1,1.8,2.3,2.9,3.5s2,2.5,3,3.6l2.6,3.4a23.7,23.7,0,0,1,1.9,2.5h.1V93.7c0-1.5,0-2.8-.1-3.9a7.2,7.2,0,0,0-.7-2.8,3.3,3.3,0,0,0-1.3-1.7,4.8,4.8,0,0,0-2.3-.8v-.4h9.6v.4a5.3,5.3,0,0,0-3.1,1.3,5.2,5.2,0,0,0-.8,3.1v18.7h-1.3c-1.3-2-2.7-4-4.1-5.9s-2.9-3.7-4.3-5.4L453,91.5l-3.6-3.9v1.8c0,.6-.1,1.2-.1,1.8v6.1c0,2.1.1,3.8.2,5a9,9,0,0,0,.6,2.8,2.9,2.9,0,0,0,1.4,1.3l2.6.5v.4h-11v-.4l2.1-.4a5.3,5.3,0,0,0,1.5-.5,2.4,2.4,0,0,0,.8-1.1,6.9,6.9,0,0,0,.4-1.9l.4-16.1a12.8,12.8,0,0,0-2.5-1.5l-2.7-.9Z" transform="translate(0 -12.1)" style="fill:#231f20"></path><path d="M484.4,106.9a7.7,7.7,0,0,0,2-.4,2.4,2.4,0,0,0,1.1-.9,3.4,3.4,0,0,0,.4-1.6,16.3,16.3,0,0,0,.1-2.4V85.3h-3.1a4.8,4.8,0,0,0-2.1.7,4,4,0,0,0-1.6,1.8,13,13,0,0,0-1.4,3.3l-.5-.2.5-6.9h19.7L500,91l-.5.2a18.8,18.8,0,0,0-1.3-3.3,5.7,5.7,0,0,0-1.6-1.8,5.2,5.2,0,0,0-2.2-.7h-3.2v16.3a16.3,16.3,0,0,0,.1,2.4,3.4,3.4,0,0,0,.4,1.6,2.7,2.7,0,0,0,1.2.9,6.9,6.9,0,0,0,2,.4v.4H484.4Z" transform="translate(0 -12.1)" style="fill:#231f20"></path><rect x="0.6" y="58.2" width="498.9" height="1.43" style="fill:#231f20"></rect></svg> 